<svg xmlns="http://www.w3.org/2000/svg" width="283" height="35" fill="none">
  <g clip-path="url(#a)">
    <mask id="b" width="182" height="30" x="0" y="0" maskUnits="userSpaceOnUse" style="mask-type:luminance">
      <path fill="#fff" d="M182 0H0v30h182V0Z"></path>
    </mask>
    <g mask="url(#b)">
      <path fill="#856FFC" d="M19.15 0H6.206a6.093 6.093 0 0 0-4.388 1.866A6.413 6.413 0 0 0 0 6.366v1.95c0 2.598 1.592 4.873 4.26 6.09l1.066.448V8.412a.74.74 0 0 1-.007-.098v-1.95c0-.33.164-.545.262-.645a.871.871 0 0 1 .626-.268h12.946c.322 0 .532.167.629.268.097.1.259.315.259.643v4.28h5.317V6.363c0-1.7-.646-3.3-1.817-4.5A6.103 6.103 0 0 0 19.151 0ZM21.076 15.583l-1.044-.439v6.486a.187.187 0 0 1 .005.049v1.95c0 .33-.162.547-.262.647a.871.871 0 0 1-.626.268H6.205a.9.9 0 0 1-.886-.908v-4.28H0v4.28C0 27.146 2.783 30 6.205 30h12.946a6.102 6.102 0 0 0 4.388-1.866 6.419 6.419 0 0 0 1.817-4.503v-1.95c0-2.621-1.599-4.902-4.28-6.096v-.002Z"></path>
      <path fill="#856FFC" d="M10.392 17.345c1.858 1.905 2.286 4.318 2.286 4.318s.279-1.553 1.348-3.15c.264-.395.573-.792.94-1.169 1.858-1.905 4.21-2.346 4.21-2.346s-1.775-.333-3.463-1.671a8.06 8.06 0 0 1-.75-.674c-1.857-1.905-2.287-4.321-2.287-4.321s-.275 1.553-1.344 3.156a8.183 8.183 0 0 1-.942 1.167C8.53 14.561 6.177 15 6.177 15s1.778.332 3.465 1.67c.253.205.506.426.75.677v-.003Z"></path>
      <path fill="#fff" d="m47.633 13.411-6.641-.518c-1.997-.153-2.77-.581-2.77-2.26 0-1.802.803-2.352 3.098-2.352h5.39c1.906 0 2.71.672 2.89 2.444.03.49.267.765.744.765h2.682c.477 0 .745-.275.715-.793-.208-4.308-2.323-6.476-7.028-6.476h-5.45c-5.18 0-7.116 2.26-7.116 6.385 0 4.124 1.817 5.56 6.404 5.925l6.641.519c1.997.153 2.77.611 2.77 2.322 0 1.71-.804 2.351-3.068 2.351h-5.838c-1.935 0-2.74-.671-2.918-2.444-.03-.49-.268-.764-.746-.764h-2.65c-.478 0-.746.274-.716.793.207 4.308 2.292 6.475 7.028 6.475h5.866c5.211 0 7.147-2.26 7.147-6.384 0-4.124-1.906-5.62-6.432-5.988h-.002ZM72.65 13.074H61.36V4.217h-4.14v21.564h4.14v-8.948H72.65v8.948h4.167V4.217H72.65v8.857ZM97.336 18.512c0 2.626-.895 3.207-2.889 3.207h-6.7c-1.996 0-2.918-.58-2.918-3.207V4.217h-4.14V18.36c0 4.551 2.115 7.42 7.058 7.42h6.7c4.913 0 7.059-2.871 7.059-7.42V4.216h-4.17v14.295ZM105.377 25.78h4.109v-9.04h8.755v-3.756h-8.755V8.278h13.192V4.217h-17.301v21.564ZM125.15 25.78h4.11v-9.04h8.757v-3.756h-8.757V8.278h13.194V4.217H125.15v21.564ZM149.063 4.217h-4.14v21.564h17.066v-4.062h-12.926V4.217ZM182 8.279V4.217h-17.779v21.564H182v-4.062h-13.67v-4.98h9.089v-3.756h-9.089V8.28H182Z"></path>
    </g>
  </g>
  <path fill="#fff" d="M222.306 14.304c1.703.695 1.946 1.946 1.946 3.824v5.7c0 2.643-1.182 3.616-2.711 4.172h-8.134c-1.53-.556-2.712-1.53-2.712-4.171v-4.937h5.562v4.241l.348.348h1.738l.347-.348V19.31l-.312-.487-5.736-2.573c-1.703-.764-1.947-1.946-1.947-3.823V7.143c0-2.642 1.182-3.615 2.712-4.172h8.134c1.529.557 2.711 1.53 2.711 4.172V11.8h-5.562V7.838l-.347-.348h-1.738l-.348.348v3.65l.452.556 5.597 2.26Zm16.362-6.118h-3.998V28h-5.562V8.186h-3.997V2.97h13.557v5.215Zm14.613-1.043v16.686c0 2.642-1.182 3.615-2.711 4.171h-8.134c-1.53-.556-2.712-1.53-2.712-4.171V7.143c0-2.642 1.182-3.615 2.712-4.172h8.134c1.529.557 2.711 1.53 2.711 4.172Zm-5.562 15.99V7.838l-.347-.348h-1.738l-.348.348v15.295l.348.348h1.738l.347-.348ZM262.682 7.49h-2.086v6.258h2.086l.348-.348V7.838l-.348-.348ZM260.596 28h-5.562V2.971h10.846c1.53.557 2.711 1.53 2.711 4.172v5.318c0 2.399-.973 3.442-2.329 4.033l2.99 7.995V28h-4.867l-3.198-9.733h-.591V28Zm9.681 0V2.971h11.471v5.215h-5.909v4.519h5.561v5.214h-5.561v4.867h6.083V28h-11.645Z"></path>
  <path stroke="#856FFC" d="M196.5 3v26"></path>
  <defs>
    <clipPath id="a">
      <path fill="#fff" d="M0 0h182v30H0z"></path>
    </clipPath>
  </defs>
</svg>