<svg width="76" height="77" viewBox="0 0 76 77" fill="none"
  xmlns="http://www.w3.org/2000/svg">
  <g filter="url(#filter0_di_743_568)">
    <path d="M38.006 76C38.006 76 35.5711 62.4241 24.9944 51.7027V51.7146C23.6046 50.3061 22.1657 49.0592 20.7268 47.9123C11.1217 40.3828 1 38.5122 1 38.5122C1 38.5122 14.3931 36.0439 24.982 25.3224C27.0728 23.2033 28.8437 20.9717 30.3442 18.7527C36.4322 9.73918 37.994 1 37.994 1C37.994 1 40.4409 14.5888 51.0181 25.3105C52.4079 26.719 53.8463 27.9659 55.2855 29.1002C64.8908 36.6303 75 38.5002 75 38.5002C75 38.5002 61.6066 40.9812 51.0301 51.7027C48.9398 53.8215 47.1806 56.0536 45.6802 58.2723C39.5924 67.2609 38.006 76 38.006 76Z" fill="#6B38F1"></path>
  </g>
  <defs>
    <filter id="filter0_di_743_568" x="0" y="0" width="76" height="77" filterUnits="userSpaceOnUse" color-interpolation-filters="sRGB">
      <feFlood flood-opacity="0" result="BackgroundImageFix"></feFlood>
      <feColorMatrix in="SourceAlpha" type="matrix" values="0 0 0 0 0 0 0 0 0 0 0 0 0 0 0 0 0 0 127 0" result="hardAlpha"></feColorMatrix>
      <feOffset></feOffset>
      <feGaussianBlur stdDeviation="0.5"></feGaussianBlur>
      <feComposite in2="hardAlpha" operator="out"></feComposite>
      <feColorMatrix type="matrix" values="0 0 0 0 0.419608 0 0 0 0 0.219608 0 0 0 0 0.945098 0 0 0 1 0"></feColorMatrix>
      <feBlend mode="normal" in2="BackgroundImageFix" result="effect1_dropShadow_743_568"></feBlend>
      <feBlend mode="normal" in="SourceGraphic" in2="effect1_dropShadow_743_568" result="shape"></feBlend>
      <feColorMatrix in="SourceAlpha" type="matrix" values="0 0 0 0 0 0 0 0 0 0 0 0 0 0 0 0 0 0 127 0" result="hardAlpha"></feColorMatrix>
      <feOffset></feOffset>
      <feGaussianBlur stdDeviation="4.95"></feGaussianBlur>
      <feComposite in2="hardAlpha" operator="arithmetic" k2="-1" k3="1"></feComposite>
      <feColorMatrix type="matrix" values="0 0 0 0 1 0 0 0 0 1 0 0 0 0 1 0 0 0 0.5 0"></feColorMatrix>
      <feBlend mode="normal" in2="shape" result="effect2_innerShadow_743_568"></feBlend>
    </filter>
  </defs>
</svg>